<?xml version="1.0" standalone="no"?>
<!DOCTYPE svg PUBLIC "-//W3C//DTD SVG 20010904//EN"
 "http://www.w3.org/TR/2001/REC-SVG-20010904/DTD/svg10.dtd">
<svg version="1.0" xmlns="http://www.w3.org/2000/svg"
 width="847.000000pt" height="847.000000pt" viewBox="0 0 847.000000 847.000000"
 preserveAspectRatio="xMidYMid meet">
<metadata>
Created by potrace 1.11, written by Peter Selinger 2001-2013
</metadata>
<g transform="translate(0.000000,847.000000) scale(0.100000,-0.100000)"
fill="#000000" stroke="none">
<path d="M4072 8444 c-5 -10 -64 -190 -131 -399 -67 -209 -128 -398 -136 -421
-30 -79 -47 -88 -292 -143 -174 -39 -229 -48 -258 -41 -20 5 -40 11 -43 15 -4
4 -147 145 -317 314 -317 314 -341 333 -392 314 -16 -6 -143 -77 -521 -291
-74 -42 -142 -87 -153 -100 -27 -35 -24 -88 12 -222 149 -548 179 -664 179
-688 0 -49 -34 -94 -194 -259 -137 -141 -174 -174 -202 -179 -38 -7 -52 -5
-364 63 -534 115 -541 116 -583 83 -14 -11 -63 -95 -112 -193 -49 -94 -125
-245 -171 -334 -46 -89 -84 -170 -84 -180 0 -39 40 -85 191 -222 l156 -142
-64 -97 c-118 -178 -217 -404 -269 -617 -26 -107 -54 -298 -54 -369 l0 -44
-102 -37 c-70 -25 -112 -46 -131 -66 -26 -28 -27 -33 -27 -137 0 -98 28 -353
64 -591 22 -143 25 -145 265 -185 105 -18 193 -35 194 -37 2 -2 28 -42 59 -89
120 -186 323 -398 501 -524 53 -37 97 -71 97 -75 0 -4 -103 -146 -230 -317
-214 -288 -230 -312 -230 -351 0 -46 2 -48 219 -312 231 -279 291 -349 306
-355 42 -16 102 5 478 165 358 152 406 171 444 166 33 -3 77 -28 204 -113 97
-66 167 -120 175 -136 18 -35 18 -71 -5 -398 -11 -151 -23 -332 -27 -401 l-7
-126 29 -31 c26 -28 71 -45 403 -152 206 -66 389 -120 406 -120 45 0 78 30
144 129 188 283 398 590 420 615 45 49 67 54 250 48 141 -4 171 -7 198 -24 31
-19 75 -94 377 -645 67 -122 110 -173 147 -173 11 0 90 18 177 41 86 22 263
67 392 100 129 33 246 68 260 78 49 35 50 45 61 493 5 233 14 439 19 459 13
46 34 65 165 145 74 45 124 68 152 72 44 5 50 2 358 -165 173 -94 376 -204
424 -230 57 -30 92 -29 130 3 26 22 154 155 548 575 24 25 36 49 40 78 6 45
24 13 -311 566 -81 132 -146 244 -146 250 1 5 36 31 79 57 113 68 235 161 328
250 54 52 89 78 105 78 38 0 416 30 503 39 127 15 116 -10 214 483 101 510
108 459 -76 551 l-128 65 3 183 c5 278 -33 503 -123 742 -20 55 -35 100 -33
101 2 2 66 50 143 108 133 99 165 134 165 176 0 9 -24 80 -54 157 -29 77 -92
243 -140 369 -48 126 -94 243 -102 259 -24 46 -68 59 -161 47 -43 -6 -116 -15
-163 -20 -47 -5 -177 -21 -290 -34 -333 -40 -340 -40 -377 -17 -18 11 -78 82
-135 157 -100 133 -103 139 -102 188 0 40 32 136 147 448 81 218 147 408 147
422 0 49 -24 76 -154 173 -72 53 -184 137 -248 185 -247 185 -267 198 -313
198 -37 0 -51 -8 -136 -78 -281 -233 -547 -450 -569 -465 -13 -9 -42 -17 -63
-17 -36 0 -360 113 -406 142 -29 18 -57 80 -75 163 -115 532 -159 725 -171
752 -8 18 -28 39 -45 48 -42 22 -367 53 -636 62 -202 6 -212 5 -222 -13z m474
-1769 c363 -44 731 -181 1044 -388 41 -27 79 -54 85 -58 5 -5 -628 -9 -1445
-9 l-1454 0 35 26 c113 85 299 187 465 257 404 169 820 226 1270 172z m1864
-656 c624 -77 1139 -440 1411 -994 246 -503 246 -1077 0 -1580 -272 -554 -787
-917 -1411 -994 -117 -15 -4243 -15 -4360 0 -624 77 -1139 440 -1411 994 -246
503 -246 1077 0 1580 270 550 784 915 1401 994 99 13 4267 13 4370 0z m-706
-3777 c-75 -68 -348 -225 -505 -291 -668 -282 -1426 -259 -2067 63 -119 59
-295 165 -361 217 -23 19 8 19 1460 19 815 0 1479 -4 1473 -8z"/>
<path d="M2035 5480 c-256 -48 -498 -174 -675 -351 -167 -168 -271 -352 -338
-599 -23 -87 -26 -112 -26 -295 0 -183 3 -208 26 -295 119 -439 405 -753 821
-899 324 -114 673 -87 991 77 321 165 543 449 644 822 23 87 26 112 26 295 0
183 -3 208 -26 295 -67 247 -171 431 -338 599 -285 286 -717 423 -1105 351z"/>
<path d="M6119 5307 c-100 -29 -200 -113 -242 -205 -18 -38 -22 -66 -22 -147
0 -89 3 -106 28 -156 34 -70 109 -142 185 -177 48 -22 71 -27 142 -27 71 0 94
5 142 27 76 35 151 107 185 177 25 50 28 67 28 156 0 89 -3 106 -28 156 -33
69 -109 142 -182 175 -66 30 -170 40 -236 21z"/>
<path d="M5407 4590 c-101 -26 -206 -113 -250 -208 -32 -68 -32 -226 0 -295
33 -71 113 -150 186 -183 53 -24 75 -28 147 -28 110 0 186 32 260 110 77 82
95 128 95 249 0 121 -18 167 -95 249 -85 90 -228 135 -343 106z"/>
<path d="M6847 4590 c-101 -26 -206 -113 -250 -208 -32 -68 -32 -226 0 -295
33 -71 113 -150 186 -183 53 -24 75 -28 147 -28 110 0 186 32 260 110 77 82
95 128 95 249 0 121 -18 167 -95 249 -85 90 -228 135 -343 106z"/>
<path d="M6094 3852 c-96 -34 -165 -99 -211 -199 -23 -48 -27 -72 -28 -138 0
-69 5 -89 31 -145 38 -79 97 -140 172 -177 50 -25 68 -28 152 -28 84 0 102 3
152 28 75 37 134 98 172 177 26 56 31 76 31 145 0 69 -5 89 -31 145 -37 79
-97 140 -171 177 -74 35 -193 42 -269 15z"/>
</g>
</svg>
